# xmcd
#
# Track frame offsets: 
#        150
#        9709
#        13137
#        27387
#        42994
#        58533
#        79181
#        98595
#        111655
#        121975
#        140434
#        162866
#        184747
#        206212
#
# Disc length: 3081 seconds
#
# Revision: 1
# Processed by: cddbd v1.5.2PL0 Copyright (c) Steve Scherf et al.
# Submitted via: ExactAudioCopy v1.3
#
DISCID=c10c070e
DTITLE=Various Artist - Encore Best Of TIS Audiophile Sampler
DYEAR=1997
DGENRE=Musical
TTITLE0=Fujiyama - King Of Coster
TTITLE1=Dynamic Run-In - Roller Coaster
TTITLE2=From Unplug2 - Tears In Heaven
TTITLE3=From Timbre Of Us$8,800,000 - Only You I Care
TTITLE4=From Oearl Silm I - Spanish Harlem
TTITLE5=From Unplug Golden Gate - Funky Jazz Nhj
TTITLE6=From Timbre Of Sax - Summertime
TTITLE7=From Unplug 2 - Happy Face
TTITLE8=From Black Magic - Amazing Grace
TTITLE9=From Blue Lights -  I'm A Fool To Want You
TTITLE10=From Timbre Of Us$8,800,000 - Goodbye! My Lover
TTITLE11=From Unplug Remixed - Whate's Wrong
TTITLE12=From Timbre Of Us$8,800,000 - Lover's Reanlrop
TTITLE13=From Unplug Remixed - Cowbell
EXTD=
EXTT0=
EXTT1=
EXTT2=
EXTT3=
EXTT4=
EXTT5=
EXTT6=
EXTT7=
EXTT8=
EXTT9=
EXTT10=
EXTT11=
EXTT12=
EXTT13=
PLAYORDER=
